<svg version="1.1" id="Layer_1" xmlns="http://www.w3.org/2000/svg" xmlns:xlink="http://www.w3.org/1999/xlink" x="0px" y="0px"
	 width="100%" viewBox="0 0 1024 1024" enable-background="new 0 0 1024 1024" xml:space="preserve">
<path fill="#000000" opacity="1.000000" stroke="none" 
	d="
M562.809326,607.174744 
	C611.736389,638.742493 673.178894,631.208984 712.487915,588.873657 
	C715.743896,585.367004 718.126160,584.812561 722.125366,587.486877 
	C734.727356,595.913696 747.544189,604.019043 760.261475,612.274048 
	C761.217102,612.894409 762.043396,613.714050 763.200684,614.663269 
	C760.946533,619.337219 757.297607,622.829651 753.994263,626.433411 
	C724.901184,658.172424 689.029358,676.982300 646.101807,681.318298 
	C594.214050,686.559387 548.746277,671.436584 509.966492,636.549683 
	C507.103882,633.974365 505.476776,635.052673 503.288696,636.959290 
	C489.465759,649.004211 473.991821,658.332947 456.935608,665.062317 
	C437.943146,672.555664 418.130554,675.793884 397.837799,675.880127 
	C351.509949,676.077026 305.180908,675.998901 258.852356,675.987183 
	C256.591217,675.986633 254.186111,676.564453 252.090836,675.127869 
	C251.242111,673.176880 252.628098,671.913940 253.406601,670.530518 
	C261.576782,656.012146 269.728973,641.483215 278.012695,627.029785 
	C279.488647,624.454468 280.095825,621.868652 280.093933,618.961914 
	C280.052704,555.135193 280.023560,491.308441 280.083954,427.481812 
	C280.087463,423.790009 278.933533,420.654907 277.211121,417.567993 
	C269.662079,404.038788 262.120544,390.505341 254.585068,376.968597 
	C253.478760,374.981201 252.081909,373.085663 252.053757,370.735504 
	C254.277847,369.203369 256.504517,369.733978 258.598389,369.732391 
	C307.093536,369.695099 355.590546,369.439667 404.083252,369.783966 
	C439.151276,370.032959 470.879639,380.639679 498.503693,402.653534 
	C499.546265,403.484344 500.713654,404.195160 501.619629,405.153961 
	C504.672485,408.384613 507.182526,408.055695 510.423981,404.967621 
	C523.569397,392.444275 538.650269,382.743927 555.148865,375.188171 
	C622.266174,344.450867 699.792542,359.048187 751.040100,412.169556 
	C754.734497,415.999023 758.054749,420.187164 761.622314,424.142365 
	C763.539734,426.268127 763.283997,427.767090 760.863037,429.326385 
	C747.136353,438.167603 733.431946,447.044525 719.793701,456.021301 
	C716.915894,457.915497 715.637817,456.056915 714.017334,454.303040 
	C697.418884,436.338013 677.560547,423.759583 653.539795,418.360718 
	C615.298828,409.765717 581.335815,418.979706 551.257935,443.568054 
	C547.280334,446.819672 542.227356,449.767426 540.622070,454.585999 
	C539.021118,459.391235 543.390747,463.755127 544.947632,468.369720 
	C557.927917,506.843353 556.977173,544.945496 541.952087,582.619568 
	C540.444275,586.400391 541.000488,588.659546 543.710327,591.331787 
	C549.545471,597.085999 555.744629,602.358276 562.809326,607.174744 
M448.070435,388.483826 
	C433.882294,383.790466 419.206879,381.582520 404.371246,381.481232 
	C362.223145,381.193542 320.071777,381.378479 277.921692,381.402252 
	C275.975342,381.403351 273.893921,381.075378 272.253784,382.708618 
	C272.197632,385.032959 273.597565,386.802094 274.600555,388.666565 
	C279.255737,397.320068 283.990112,405.931213 288.736847,414.535065 
	C290.279999,417.332184 291.400635,420.112885 291.397186,423.470062 
	C291.329376,489.777344 291.345154,556.084778 291.386688,622.392151 
	C291.388428,625.143005 290.802765,627.564758 289.421814,629.975159 
	C284.123932,639.222534 278.940857,648.536438 273.804962,657.875000 
	C272.899750,659.520874 271.261749,661.060730 272.185364,663.556580 
	C273.442810,663.681030 274.743744,663.923157 276.044464,663.921997 
	C319.526947,663.882751 363.018707,664.352234 406.488983,663.593445 
	C441.512390,662.982178 472.453064,650.143677 497.711639,626.054321 
	C532.976624,592.421753 547.236084,550.476868 540.723206,502.286560 
	C533.138123,446.163361 501.878693,408.446106 448.070435,388.483826 
M720.742859,600.956238 
	C715.886780,599.771301 714.165161,604.211548 711.544067,606.499268 
	C689.538086,625.706543 663.944702,636.609253 634.931091,638.048889 
	C598.348572,639.864258 566.137085,628.266357 538.946228,603.389343 
	C537.517578,602.082275 536.378479,600.280823 533.540039,599.880066 
	C528.584961,608.828796 521.969177,616.897705 515.225891,625.663208 
	C553.252869,660.623047 597.578308,675.703796 648.424683,669.403076 
	C687.073975,664.613831 719.598755,647.247803 746.248352,617.283997 
	C737.274780,611.510315 729.321289,606.392944 720.742859,600.956238 
M528.596497,435.958466 
	C530.285217,438.342743 531.470703,441.124908 533.579163,442.982483 
	C534.178711,442.770020 534.369873,442.756683 534.479248,442.655182 
	C535.698669,441.523926 536.884644,440.356049 538.118774,439.241302 
	C570.141479,410.316040 607.376282,398.234772 650.146667,405.584106 
	C675.215942,409.891846 697.150757,421.110352 715.516602,438.863739 
	C718.217590,441.474670 720.232178,441.624603 723.205200,439.508881 
	C728.087646,436.034393 733.277954,432.995819 738.235291,429.621857 
	C740.763977,427.900848 743.800171,426.683594 745.449402,423.623474 
	C744.325073,422.344574 743.375732,421.196106 742.355713,420.114288 
	C698.812561,373.933685 628.311707,358.400452 569.401001,381.953125 
	C551.285400,389.195770 534.842773,399.148102 520.106567,411.929657 
	C514.250916,417.008545 514.287048,417.009735 518.918640,422.959259 
	C522.089661,427.032654 525.104187,431.227844 528.596497,435.958466 
z"/>
<path fill="#000000" opacity="1.000000" stroke="none" 
	d="
M498.780762,455.288818 
	C530.454834,503.060638 524.055664,567.169922 483.483521,606.857971 
	C461.325836,628.532715 434.267273,639.551392 403.370941,640.189209 
	C376.396393,640.746094 349.401093,640.246338 322.416107,640.405212 
	C318.178619,640.430115 316.604675,639.323303 316.612061,634.809448 
	C316.734192,560.015259 316.731750,485.220795 316.619568,410.426636 
	C316.612854,405.962219 318.170715,404.723083 322.433258,404.744751 
	C349.418396,404.881958 376.429779,404.067993 403.384521,404.982330 
	C442.889496,406.322418 475.623962,421.614014 498.780762,455.288818 
M328.244354,496.500000 
	C328.259949,538.654968 328.281891,580.809998 328.278046,622.964966 
	C328.277771,626.078613 327.944397,629.001587 332.661560,628.873657 
	C359.627869,628.142273 386.655762,630.178284 413.570648,627.648438 
	C438.783630,625.278503 459.965820,614.201477 477.744690,596.297852 
	C480.184052,593.841309 480.306610,591.802612 478.756226,588.852661 
	C476.749054,585.033447 475.085175,581.003052 473.604523,576.942871 
	C458.637543,535.901306 460.195709,495.349762 477.774658,455.467834 
	C479.681335,451.142090 479.149231,448.675110 475.845581,445.626251 
	C457.267548,428.481171 435.401398,418.998962 410.247162,417.276215 
	C384.955414,415.544098 359.612762,416.794495 334.299316,416.302521 
	C329.477966,416.208832 328.036926,417.714630 328.083099,422.521362 
	C328.316681,446.845856 328.223419,471.173462 328.244354,496.500000 
M476.279358,540.309570 
	C478.101410,554.636963 481.667786,568.413269 488.492249,581.776123 
	C515.046875,547.404785 511.046936,487.819397 487.875732,461.395325 
	C476.372192,486.533081 473.115936,512.473755 476.279358,540.309570 
z"/>
</svg>